<svg xmlns="http://www.w3.org/2000/svg" xmlns:xlink="http://www.w3.org/1999/xlink" version="1.1" id="Layer_1" x="0px" y="0px" style="enable-background:new 0 0 417.6 131.2;" xml:space="preserve" viewBox="0.6 0.1 416.4 99.07">
	<style type="text/css">	.st0{display:none;}	.st1{display:none;clip-path:url(#SVGID_2_);fill:url(#SVGID_3_);}	.st2{display:none;clip-path:url(#SVGID_5_);fill:url(#SVGID_6_);}</style>
	<g id="V1QRMw.tif" class="st0">
		<image style="display:inline;overflow:visible;enable-background:new    ;" width="181" height="59" id="Layer_0_4_" xlink:href="561F302D2901AFFC.png" transform="matrix(1 0 0 1 125.9631 40.167)"/>
	</g>
	<g>
		<g>
			<defs>
				<path id="SVGID_1_" d="M211.7,0.2v47.2L181.1,0.2h-28.3v61.3L131.5,0.2H118l10,13h-23.6l9.4-11.8l0.8-1.2h-13.8L82,52.1     c0,0,2.4-47.2-40.1-49.5H1.8L0.6,1.3v94.4h40.1c0,0,20.1-1.2,31.8-15.3l-4.7,14.2h28.3l4.7-14.2h28.3l4.7,14.2h44.8V49.7l33,44.8     h25.9V0.2H211.7z M52.5,53.2c0,0,0,7.1-7.1,11.8c0,0-4.7,4.7-16.5,4.7V27.3H36c0,0,16.5,2.4,16.5,18.9V53.2z M109.1,55.6     l7.1-14.2l7.1,14.2H109.1z"/>
			</defs>
			<use xlink:href="#SVGID_1_" style="overflow:visible;fill:#0F6C32;"/>
			<clipPath id="SVGID_2_">
				<use xlink:href="#SVGID_1_" style="overflow:visible;"/>
			</clipPath>
			<linearGradient id="SVGID_3_" gradientUnits="userSpaceOnUse" x1="209.2823" y1="134.7966" x2="209.419" y2="35.1175" gradientTransform="matrix(1 0 0 -1 0 134)">
				<stop offset="0" style="stop-color:#0F6C32"/>
				<stop offset="1" style="stop-color:#0F6C32"/>
			</linearGradient>
			<rect x="-1.8" y="-1" class="st1" width="422.3" height="99.1"/>
		</g>
	</g>
	<g>
		<g>
			<defs>
				<path id="SVGID_4_" d="M408.7,13.1h-11.8l8.3-13h-16.5v16.5c0,0-4.7-11.8-21.2-16.5h-118v28.3h21.2v66.1h25.9v-66h21.2v66.1h25.9     V70.9l18.9,23.6H417V4.9L408.7,13.1z M354.5,43.8H345V24.9h7.1c0,0,7.1,2.4,7.1,11.8C359.2,36.7,359.2,41.4,354.5,43.8z      M389.8,83.9l-16.5-23.6c0,0,7.1-2.4,16.5-16.5V83.9z"/>
			</defs>
			<use xlink:href="#SVGID_4_" style="overflow:visible;fill:#0F6C32;"/>
			<clipPath id="SVGID_5_">
				<use xlink:href="#SVGID_4_" style="overflow:visible;"/>
			</clipPath>
			<linearGradient id="SVGID_6_" gradientUnits="userSpaceOnUse" x1="209.2823" y1="134.7966" x2="209.419" y2="35.1175" gradientTransform="matrix(1 0 0 -1 0 134)">
				<stop offset="0" style="stop-color:#0F6C32"/>
				<stop offset="1" style="stop-color:#0F6C32"/>
			</linearGradient>
			<rect x="-1.8" y="-1" class="st2" width="422.3" height="99.1"/>
		</g>
	</g>
</svg>